<?xml version="1.0" encoding="UTF-8" standalone="no"?>
<!DOCTYPE svg PUBLIC "-//W3C//DTD SVG 1.1//EN"
 "http://www.w3.org/Graphics/SVG/1.1/DTD/svg11.dtd">
<!-- Generated by graphviz version 2.40.1 (20161225.0304)
 -->
<!-- Title: G Pages: 1 -->
<svg width="1118pt" height="102pt"
 viewBox="0.00 0.00 1118.00 102.00" xmlns="http://www.w3.org/2000/svg" xmlns:xlink="http://www.w3.org/1999/xlink">
<g id="graph0" class="graph" transform="scale(1 1) rotate(0) translate(4 98)">
<title>G</title>
<polygon fill="#ffffff" stroke="transparent" points="-4,4 -4,-98 1114,-98 1114,4 -4,4"/>
<!-- A -->
<g id="node1" class="node">
<title>A</title>
<polygon fill="none" stroke="#000000" points="82,-65 0,-65 0,-29 82,-29 82,-65"/>
<text text-anchor="middle" x="41" y="-43.3" font-family="Times,serif" font-size="14.00" fill="#000000">Mikrofon</text>
</g>
<!-- B -->
<g id="node2" class="node">
<title>B</title>
<polygon fill="none" stroke="#000000" points="238,-66 119,-66 119,-28 238,-28 238,-66"/>
<text text-anchor="middle" x="178.5" y="-50.8" font-family="Times,serif" font-size="14.00" fill="#000000">Analog&#45;Digital</text>
<text text-anchor="middle" x="178.5" y="-35.8" font-family="Times,serif" font-size="14.00" fill="#000000">Umwandlung</text>
</g>
<!-- A&#45;&gt;B -->
<g id="edge1" class="edge">
<title>A&#45;&gt;B</title>
<path fill="none" stroke="#000000" d="M82.2545,-47C90.6458,-47 99.6913,-47 108.7598,-47"/>
<polygon fill="#000000" stroke="#000000" points="108.9746,-50.5001 118.9746,-47 108.9746,-43.5001 108.9746,-50.5001"/>
</g>
<!-- C -->
<g id="node3" class="node">
<title>C</title>
<polygon fill="none" stroke="#000000" points="385,-66 275,-66 275,-28 385,-28 385,-66"/>
<text text-anchor="middle" x="330" y="-50.8" font-family="Times,serif" font-size="14.00" fill="#000000">Vor&#45;</text>
<text text-anchor="middle" x="330" y="-35.8" font-family="Times,serif" font-size="14.00" fill="#000000">verarbeitung</text>
</g>
<!-- B&#45;&gt;C -->
<g id="edge2" class="edge">
<title>B&#45;&gt;C</title>
<path fill="none" stroke="#000000" d="M238.3768,-47C247.0561,-47 256.0264,-47 264.8039,-47"/>
<polygon fill="#000000" stroke="#000000" points="264.9904,-50.5001 274.9904,-47 264.9903,-43.5001 264.9904,-50.5001"/>
</g>
<!-- D -->
<g id="node4" class="node">
<title>D</title>
<polygon fill="none" stroke="#000000" points="561.5,-94 449.5,-94 449.5,-56 561.5,-56 561.5,-94"/>
<text text-anchor="middle" x="505.5" y="-78.8" font-family="Times,serif" font-size="14.00" fill="#000000">Stimulations&#45;</text>
<text text-anchor="middle" x="505.5" y="-63.8" font-family="Times,serif" font-size="14.00" fill="#000000">strategie</text>
</g>
<!-- C&#45;&gt;D -->
<g id="edge3" class="edge">
<title>C&#45;&gt;D</title>
<path fill="none" stroke="#000000" d="M385.0478,-55.7826C402.2704,-58.5303 421.4543,-61.591 439.3584,-64.4475"/>
<polygon fill="#000000" stroke="#000000" points="439.0125,-67.9365 449.4391,-66.0558 440.1155,-61.0239 439.0125,-67.9365"/>
<text text-anchor="middle" x="415.5" y="-65.8" font-family="Times,serif" font-size="14.00" fill="#000000">CI</text>
</g>
<!-- I -->
<g id="node9" class="node">
<title>I</title>
<polygon fill="none" stroke="#000000" points="565,-38 446,-38 446,0 565,0 565,-38"/>
<text text-anchor="middle" x="505.5" y="-22.8" font-family="Times,serif" font-size="14.00" fill="#000000">Digital&#45;Analog</text>
<text text-anchor="middle" x="505.5" y="-7.8" font-family="Times,serif" font-size="14.00" fill="#000000">Umwandlung</text>
</g>
<!-- C&#45;&gt;I -->
<g id="edge8" class="edge">
<title>C&#45;&gt;I</title>
<path fill="none" stroke="#000000" d="M385.0478,-38.2174C401.0311,-35.6674 418.7037,-32.8479 435.4748,-30.1721"/>
<polygon fill="#000000" stroke="#000000" points="436.4539,-33.5603 445.7776,-28.5284 435.351,-26.6477 436.4539,-33.5603"/>
<text text-anchor="middle" x="415.5" y="-38.8" font-family="Times,serif" font-size="14.00" fill="#000000">HG</text>
</g>
<!-- E -->
<g id="node5" class="node">
<title>E</title>
<polygon fill="none" stroke="#000000" stroke-width="4" points="677,-94 620,-94 620,-56 677,-56 677,-94"/>
<text text-anchor="middle" x="648.5" y="-78.8" font-family="Times,serif" font-size="14.00" fill="#000000">RF</text>
<text text-anchor="middle" x="648.5" y="-63.8" font-family="Times,serif" font-size="14.00" fill="#000000">Spule</text>
</g>
<!-- D&#45;&gt;E -->
<g id="edge4" class="edge">
<title>D&#45;&gt;E</title>
<path fill="none" stroke="#000000" d="M561.607,-75C577.5998,-75 594.6713,-75 609.4117,-75"/>
<polygon fill="#000000" stroke="#000000" points="609.6842,-78.5001 619.6841,-75 609.6841,-71.5001 609.6842,-78.5001"/>
</g>
<!-- F -->
<g id="node6" class="node">
<title>F</title>
<polygon fill="none" stroke="#000000" points="827,-93 750,-93 750,-57 827,-57 827,-93"/>
<text text-anchor="middle" x="788.5" y="-71.3" font-family="Times,serif" font-size="14.00" fill="#000000">Dekoder</text>
</g>
<!-- E&#45;&gt;F -->
<g id="edge5" class="edge">
<title>E&#45;&gt;F</title>
<path fill="none" stroke="#000000" d="M677.1689,-75C695.099,-75 718.6657,-75 739.4981,-75"/>
<polygon fill="#000000" stroke="#000000" points="739.7825,-78.5001 749.7824,-75 739.7824,-71.5001 739.7825,-78.5001"/>
</g>
<!-- G -->
<g id="node7" class="node">
<title>G</title>
<polygon fill="none" stroke="#000000" points="977,-94 882,-94 882,-56 977,-56 977,-94"/>
<text text-anchor="middle" x="929.5" y="-78.8" font-family="Times,serif" font-size="14.00" fill="#000000">Puls</text>
<text text-anchor="middle" x="929.5" y="-63.8" font-family="Times,serif" font-size="14.00" fill="#000000">Erzeugung</text>
</g>
<!-- F&#45;&gt;G -->
<g id="edge6" class="edge">
<title>F&#45;&gt;G</title>
<path fill="none" stroke="#000000" d="M827.0289,-75C840.8088,-75 856.6562,-75 871.7049,-75"/>
<polygon fill="#000000" stroke="#000000" points="871.9604,-78.5001 881.9604,-75 871.9604,-71.5001 871.9604,-78.5001"/>
</g>
<!-- H -->
<g id="node8" class="node">
<title>H</title>
<polygon fill="none" stroke="#000000" points="1110,-93 1014,-93 1014,-57 1110,-57 1110,-93"/>
<text text-anchor="middle" x="1062" y="-71.3" font-family="Times,serif" font-size="14.00" fill="#000000">Elektroden</text>
</g>
<!-- G&#45;&gt;H -->
<g id="edge7" class="edge">
<title>G&#45;&gt;H</title>
<path fill="none" stroke="#000000" d="M977.3355,-75C985.8601,-75 994.8266,-75 1003.6064,-75"/>
<polygon fill="#000000" stroke="#000000" points="1003.7897,-78.5001 1013.7896,-75 1003.7896,-71.5001 1003.7897,-78.5001"/>
</g>
<!-- J -->
<g id="node10" class="node">
<title>J</title>
<polygon fill="none" stroke="#000000" points="695,-37 602,-37 602,-1 695,-1 695,-37"/>
<text text-anchor="middle" x="648.5" y="-15.3" font-family="Times,serif" font-size="14.00" fill="#000000">Verstärker</text>
</g>
<!-- I&#45;&gt;J -->
<g id="edge9" class="edge">
<title>I&#45;&gt;J</title>
<path fill="none" stroke="#000000" d="M565.3163,-19C574.1178,-19 583.162,-19 591.896,-19"/>
<polygon fill="#000000" stroke="#000000" points="591.9732,-22.5001 601.9732,-19 591.9731,-15.5001 591.9732,-22.5001"/>
</g>
<!-- K -->
<g id="node11" class="node">
<title>K</title>
<polygon fill="none" stroke="#000000" points="845,-37 732,-37 732,-1 845,-1 845,-37"/>
<text text-anchor="middle" x="788.5" y="-15.3" font-family="Times,serif" font-size="14.00" fill="#000000">Lautsprecher</text>
</g>
<!-- J&#45;&gt;K -->
<g id="edge10" class="edge">
<title>J&#45;&gt;K</title>
<path fill="none" stroke="#000000" d="M695.118,-19C703.6713,-19 712.7509,-19 721.7584,-19"/>
<polygon fill="#000000" stroke="#000000" points="721.8657,-22.5001 731.8656,-19 721.8656,-15.5001 721.8657,-22.5001"/>
</g>
</g>
</svg>
